<svg width="213" height="198" viewBox="0 0 213 198" fill="none" xmlns="http://www.w3.org/2000/svg">
<g filter="url(#filter0_d_1_55)">
<mask id="path-1-inside-1_1_55" fill="white">
<path fill-rule="evenodd" clip-rule="evenodd" d="M53.9253 102.021L97.8377 145.933C99.7665 147.862 102.894 147.862 104.822 145.933C104.837 145.919 104.852 145.904 104.866 145.89L148.735 102.021C160.636 90.1201 160.636 70.8258 148.735 58.9254C136.835 47.0249 117.541 47.0249 105.64 58.9253C103.26 61.3056 99.4007 61.3058 97.0205 58.9255C85.1201 47.0251 65.8257 47.0251 53.9253 58.9255C42.0249 70.826 42.0248 90.1203 53.9253 102.021Z"/>
</mask>
<path fill-rule="evenodd" clip-rule="evenodd" d="M53.9253 102.021L97.8377 145.933C99.7665 147.862 102.894 147.862 104.822 145.933C104.837 145.919 104.852 145.904 104.866 145.89L148.735 102.021C160.636 90.1201 160.636 70.8258 148.735 58.9254C136.835 47.0249 117.541 47.0249 105.64 58.9253C103.26 61.3056 99.4007 61.3058 97.0205 58.9255C85.1201 47.0251 65.8257 47.0251 53.9253 58.9255C42.0249 70.826 42.0248 90.1203 53.9253 102.021Z" fill="url(#paint0_linear_1_55)"/>
<path d="M99.6055 144.165L55.693 100.253L52.1575 103.788L96.0699 147.701L99.6055 144.165ZM103.099 144.122C103.091 144.13 103.084 144.137 103.076 144.144L106.568 147.722C106.591 147.701 106.612 147.679 106.634 147.658L103.099 144.122ZM146.968 100.253L103.099 144.122L106.634 147.658L150.503 103.788L146.968 100.253ZM146.968 60.6931C157.892 71.6172 157.892 89.3287 146.968 100.253L150.503 103.788C163.38 90.9116 163.38 70.0343 150.503 57.1576L146.968 60.6931ZM107.408 60.6931C118.332 49.769 136.044 49.769 146.968 60.6931L150.503 57.1576C137.627 44.2809 116.749 44.2808 103.873 57.1576L107.408 60.6931ZM55.6931 60.6933C66.6172 49.7692 84.3286 49.7692 95.2527 60.6933L98.7883 57.1578C85.9115 44.2811 65.0342 44.2811 52.1575 57.1578L55.6931 60.6933ZM55.693 100.253C44.7689 89.3289 44.769 71.6174 55.6931 60.6933L52.1575 57.1578C39.2808 70.0345 39.2808 90.9118 52.1575 103.788L55.693 100.253ZM103.873 57.1576C102.468 58.5616 100.192 58.5616 98.7883 57.1578L95.2527 60.6933C98.6094 64.05 104.052 64.0495 107.408 60.6931L103.873 57.1576ZM96.0699 147.701C98.975 150.606 103.685 150.606 106.59 147.701L103.055 144.165C102.102 145.118 100.558 145.118 99.6055 144.165L96.0699 147.701Z" fill="#652017" mask="url(#path-1-inside-1_1_55)"/>
</g>
<g filter="url(#filter1_f_1_55)">
<path d="M57.5215 86.5208C56.6391 79.8541 59.3747 65.5208 77.3767 61.5208" stroke="#F9E0CF" stroke-width="5" stroke-linecap="round"/>
</g>
<defs>
<filter id="filter0_d_1_55" x="0" y="0" width="212.661" height="197.38" filterUnits="userSpaceOnUse" color-interpolation-filters="sRGB">
<feFlood flood-opacity="0" result="BackgroundImageFix"/>
<feColorMatrix in="SourceAlpha" type="matrix" values="0 0 0 0 0 0 0 0 0 0 0 0 0 0 0 0 0 0 127 0" result="hardAlpha"/>
<feOffset dx="5"/>
<feGaussianBlur stdDeviation="25"/>
<feComposite in2="hardAlpha" operator="out"/>
<feColorMatrix type="matrix" values="0 0 0 0 0 0 0 0 0 0 0 0 0 0 0 0 0 0 0.25 0"/>
<feBlend mode="normal" in2="BackgroundImageFix" result="effect1_dropShadow_1_55"/>
<feBlend mode="normal" in="SourceGraphic" in2="effect1_dropShadow_1_55" result="shape"/>
</filter>
<filter id="filter1_f_1_55" x="52.377" y="56.5203" width="30.0002" height="35.0009" filterUnits="userSpaceOnUse" color-interpolation-filters="sRGB">
<feFlood flood-opacity="0" result="BackgroundImageFix"/>
<feBlend mode="normal" in="SourceGraphic" in2="BackgroundImageFix" result="shape"/>
<feGaussianBlur stdDeviation="1.25" result="effect1_foregroundBlur_1_55"/>
</filter>
<linearGradient id="paint0_linear_1_55" x1="72.3768" y1="42.6308" x2="121.265" y2="131.517" gradientUnits="userSpaceOnUse">
<stop stop-color="#BC6869"/>
<stop offset="0.187957" stop-color="#792224"/>
<stop offset="0.645" stop-color="#822426"/>
<stop offset="1" stop-color="#7C2124"/>
</linearGradient>
</defs>
</svg>
