<svg width="271" height="261" viewBox="0 0 271 261" fill="none" xmlns="http://www.w3.org/2000/svg">
<rect x="66.6716" y="91.75" width="117.5" height="117.5" rx="3.75" fill="#593221" stroke="#402314" stroke-width="2.5"/>
<g filter="url(#filter0_f_1_72)">
<path d="M125.422 135.5C128.755 130.272 137.422 121.384 145.422 127.658" stroke="white" stroke-opacity="0.3"/>
</g>
<g filter="url(#filter1_d_1_72)">
<mask id="path-3-inside-1_1_72" fill="white">
<path d="M65.4216 110.5H185.422V130.5H65.4216V110.5Z"/>
</mask>
<path d="M65.4216 110.5H185.422V130.5H65.4216V110.5Z" fill="#F2DCBA"/>
<path d="M65.4216 110.5V108H62.9216V110.5H65.4216ZM185.422 110.5H187.922V108H185.422V110.5ZM65.4216 113H185.422V108H65.4216V113ZM182.922 110.5V130.5H187.922V110.5H182.922ZM67.9216 130.5V110.5H62.9216V130.5H67.9216Z" fill="#F9E5CA" mask="url(#path-3-inside-1_1_72)"/>
</g>
<g filter="url(#filter2_d_1_72)">
<mask id="path-5-inside-2_1_72" fill="white">
<path d="M65.4216 140.5H185.422V160.5H65.4216V140.5Z"/>
</mask>
<path d="M65.4216 140.5H185.422V160.5H65.4216V140.5Z" fill="#F2DCBA"/>
<path d="M65.4216 140.5V138H62.9216V140.5H65.4216ZM185.422 140.5H187.922V138H185.422V140.5ZM65.4216 143H185.422V138H65.4216V143ZM182.922 140.5V160.5H187.922V140.5H182.922ZM67.9216 160.5V140.5H62.9216V160.5H67.9216Z" fill="#F9E5CA" mask="url(#path-5-inside-2_1_72)"/>
</g>
<g filter="url(#filter3_d_1_72)">
<mask id="path-7-inside-3_1_72" fill="white">
<path d="M65.4216 170.5H185.422V190.5H65.4216V170.5Z"/>
</mask>
<path d="M65.4216 170.5H185.422V190.5H65.4216V170.5Z" fill="#F2DCBA"/>
<path d="M65.4216 170.5V168H62.9216V170.5H65.4216ZM185.422 170.5H187.922V168H185.422V170.5ZM65.4216 173H185.422V168H65.4216V173ZM182.922 170.5V190.5H187.922V170.5H182.922ZM67.9216 190.5V170.5H62.9216V190.5H67.9216Z" fill="#F9E5CA" mask="url(#path-7-inside-3_1_72)"/>
</g>
<path d="M75.4216 130.5V100.5H105.422" stroke="#FFF1E5" stroke-width="2.5" stroke-linecap="round"/>
<g filter="url(#filter4_f_1_72)">
<path d="M70.4216 205.5V95.5H180.422" stroke="#FFF1E5" stroke-opacity="0.3" stroke-width="7.5" stroke-linecap="round"/>
</g>
<defs>
<filter id="filter0_f_1_72" x="0" y="0" width="270.73" height="260.769" filterUnits="userSpaceOnUse" color-interpolation-filters="sRGB">
<feFlood flood-opacity="0" result="BackgroundImageFix"/>
<feBlend mode="normal" in="SourceGraphic" in2="BackgroundImageFix" result="shape"/>
<feGaussianBlur stdDeviation="62.5" result="effect1_foregroundBlur_1_72"/>
</filter>
<filter id="filter1_d_1_72" x="45.4216" y="100.5" width="160" height="60" filterUnits="userSpaceOnUse" color-interpolation-filters="sRGB">
<feFlood flood-opacity="0" result="BackgroundImageFix"/>
<feColorMatrix in="SourceAlpha" type="matrix" values="0 0 0 0 0 0 0 0 0 0 0 0 0 0 0 0 0 0 127 0" result="hardAlpha"/>
<feOffset dy="10"/>
<feGaussianBlur stdDeviation="10"/>
<feComposite in2="hardAlpha" operator="out"/>
<feColorMatrix type="matrix" values="0 0 0 0 0 0 0 0 0 0 0 0 0 0 0 0 0 0 0.25 0"/>
<feBlend mode="normal" in2="BackgroundImageFix" result="effect1_dropShadow_1_72"/>
<feBlend mode="normal" in="SourceGraphic" in2="effect1_dropShadow_1_72" result="shape"/>
</filter>
<filter id="filter2_d_1_72" x="45.4216" y="130.5" width="160" height="60" filterUnits="userSpaceOnUse" color-interpolation-filters="sRGB">
<feFlood flood-opacity="0" result="BackgroundImageFix"/>
<feColorMatrix in="SourceAlpha" type="matrix" values="0 0 0 0 0 0 0 0 0 0 0 0 0 0 0 0 0 0 127 0" result="hardAlpha"/>
<feOffset dy="10"/>
<feGaussianBlur stdDeviation="10"/>
<feComposite in2="hardAlpha" operator="out"/>
<feColorMatrix type="matrix" values="0 0 0 0 0 0 0 0 0 0 0 0 0 0 0 0 0 0 0.25 0"/>
<feBlend mode="normal" in2="BackgroundImageFix" result="effect1_dropShadow_1_72"/>
<feBlend mode="normal" in="SourceGraphic" in2="effect1_dropShadow_1_72" result="shape"/>
</filter>
<filter id="filter3_d_1_72" x="45.4216" y="160.5" width="160" height="60" filterUnits="userSpaceOnUse" color-interpolation-filters="sRGB">
<feFlood flood-opacity="0" result="BackgroundImageFix"/>
<feColorMatrix in="SourceAlpha" type="matrix" values="0 0 0 0 0 0 0 0 0 0 0 0 0 0 0 0 0 0 127 0" result="hardAlpha"/>
<feOffset dy="10"/>
<feGaussianBlur stdDeviation="10"/>
<feComposite in2="hardAlpha" operator="out"/>
<feColorMatrix type="matrix" values="0 0 0 0 0 0 0 0 0 0 0 0 0 0 0 0 0 0 0.25 0"/>
<feBlend mode="normal" in2="BackgroundImageFix" result="effect1_dropShadow_1_72"/>
<feBlend mode="normal" in="SourceGraphic" in2="effect1_dropShadow_1_72" result="shape"/>
</filter>
<filter id="filter4_f_1_72" x="46.6716" y="71.75" width="157.5" height="157.5" filterUnits="userSpaceOnUse" color-interpolation-filters="sRGB">
<feFlood flood-opacity="0" result="BackgroundImageFix"/>
<feBlend mode="normal" in="SourceGraphic" in2="BackgroundImageFix" result="shape"/>
<feGaussianBlur stdDeviation="10" result="effect1_foregroundBlur_1_72"/>
</filter>
</defs>
</svg>
